<?xml version="1.0" encoding="UTF-8"?> <svg xmlns="http://www.w3.org/2000/svg" viewBox="0 0 1947.07 545.32"><defs><style>.cls-1{fill:gray;}.cls-2{fill:none;}.cls-3{fill:#4d4d4d;}.cls-4{fill:#29a9e0;}</style></defs><g id="Layer_2" data-name="Layer 2"><g id="Layer_1-2" data-name="Layer 1"><path class="cls-1" d="M357.41,69.54l-3.4,8,.06,0h0l.07,0,.8.34h0l.07,0h0l.09,0,0,0,.05,0,.08,0h0l.09,0h0l.2.1h0l.11,0,3.46-8Zm19.13,9.19-4.15,7.68.11.06h0l.2.1h0l.1,0,.09.06h0c.39.2.79.42,1.17.63l4.23-7.64Zm18.16,11L389.83,97l1,.68h0l.09.07.1.06s0,0,0,0l.09.07h0l.07,0h0l.09.06,0,0,.06,0,0,0,4.94-7.2Zm17,12.67-5.54,6.76.83.69a0,0,0,0,1,0,0l.08.06,0,0,.06,0,0,0s0,0,.06.06l0,0,0,0,.31.25,5.61-6.7Zm15.73,14.24-6.17,6.2.19.18.07.07h0l1.11,1.12,6.23-6.14Zm14.29,15.69L435,137.88l.23.28h0a.17.17,0,0,0,.06.08h0l.07.09,0,0,0,.06s0,0,0,0l.06.08,0,0,0,.05,0,0,.06.07s0,0,0,0l.07.07h0l.07.09h0l.06.08h0l.07.08,0,0,.06.08,0,0,0,0,0,0,0,0,0,0,6.77-5.5Zm12.73,17-7.23,4.91c.35.53.72,1.07,1.07,1.61L455.6,151Zm11,18.13-7.67,4.19s.05.08.07.13l0,.07h0c.18.32.35.64.52,1l.06.1h0a.35.35,0,0,1,.05.08s0,0,0,0,0,0,0,0l.14.25,7.71-4.1C466.15,168.59,465.83,168,465.51,167.41Zm9.24,19.11-8,3.43c.12.27.23.54.35.82h0l.06.13v0s0,0,0,0l0,0s0,.08,0,.11a0,0,0,0,1,0,0l0,.06s0,0,0,0,.13.33.2.49l8.08-3.35Zm7.35,19.91-8.33,2.63.12.38s0,0,0,.05,0,0,0,0a.94.94,0,0,0,0,.09h0c.12.39.24.77.35,1.16h0s0,.05,0,.08v0l8.36-2.54C482.51,207.72,482.3,207.08,482.1,206.43Zm-6.35,123.28-.38,1.34h0a.14.14,0,0,1,0,.06.37.37,0,0,0,0,.09v0c0,.12-.06.22-.09.34l8.4,2.43c.18-.65.36-1.29.55-1.94Zm-6.43,19.34-.37,1h0l0,.07v0l0,.08,0,.08v0c-.08.18-.15.38-.23.55l8.13,3.24c.24-.64.5-1.26.74-1.89Zm-8.26,18.63-.54,1.07v0l-.05.07a.08.08,0,0,1,0,0s0,0,0,0l-.24.47,7.77,4,.92-1.81Zm-10,17.75-.12.19h0l-.06.1h0l0,.07,0,0a.41.41,0,0,0,0,.09l0,0-.05.07v0l-.05.09h0a.9.9,0,0,0-.05.09s0,0,0,0a.28.28,0,0,0-.06.09l0,0a.22.22,0,0,1-.05.08v0s0,.05-.06.08h0l-.05.1-.06.1h0l-.13.19h0l-.05.09h0l7.35,4.73,1.09-1.7Zm-11.68,16.7-.78,1h0l-.4.51,6.86,5.42,1.24-1.6Zm-13.23,15.5-.6.64,0,0,0,0-.08.08h0c-.19.19-.4.4-.58.61l6.31,6,1.39-1.47ZM411.47,431.8l-1.19,1h0a.15.15,0,0,0-.06.05l-.06.06h0l-.13.11,5.71,6.62c.52-.45,1-.88,1.52-1.33Zm-15.94,12.7-.39.28h0l-.07,0h0l-.08.06,0,0,0,0-.05,0-.06,0,0,0a.1.1,0,0,0-.05,0l0,0-.08.05,0,0-.07.05h0l-.08.07h0l-.17.13,0,0-.08,0,0,0-.06,0h0l5.05,7.14c.55-.39,1.1-.78,1.64-1.18Zm-17.08,11.11c-.17.09-.32.19-.49.27h0l-.07,0-.1.06-.05,0,0,0-.08,0,0,0-.05,0,0,0-.08,0-.05,0,0,0-.18.11-.37.21,4.33,7.59,1.76-1ZM360.37,465l-.37.17h0l0,0-.07,0,0,0-.05,0-.05,0-.08,0,0,0-.05,0,0,0,0,0-.11.05h0l-.71.32,3.59,8c.62-.27,1.23-.56,1.84-.84Zm-178.07-.48-.07,0h0l-1.42-.67L177,471.72l1.84.86,3.69-7.92Zm-17.85-9.41,0,0,0,0s0,0-.06-.05h0l-.1-.07c-.46-.26-.9-.53-1.36-.8l-4.51,7.48,1.74,1,4.44-7.53Zm-18.54-12.3-5.21,7c.55.39,1.09.79,1.63,1.19l5.14-7.06Zm-14.84-12.07-.06,0s0,0,0,0l-.06-.07-.05,0,0,0-.08-.06h0s0-.05-.06-.06l0,0-.08-.08h0l-.08-.08c-.13-.1-.24-.22-.36-.33l-5.85,6.5,1.5,1.34,5.8-6.54Zm-14.7-14.45h0l0-.05-.09-.1,0,0,0,0-.06-.07,0,0,0-.05,0,0,0-.07,0,0,0,0-.2-.22-6.44,5.91L110.6,423l6.39-6ZM103.5,401l0,0,0-.05-.07-.08h0l-.43-.57h0a.28.28,0,0,0-.06-.09h0l-.06-.07,0,0,0-.05,0-.07,0,0s0,0,0,0l-7,5.26,1.23,1.61,6.93-5.32ZM91.92,384.23a.75.75,0,0,0-.07-.12h0l0-.06s0,0,0,0a.21.21,0,0,0,0-.06l0-.06,0,0-.49-.8-7.46,4.56,1.07,1.72,7.41-4.63ZM81.83,366s0,0,0,0a.54.54,0,0,0,0-.11l0-.09,0,0,0-.05-.05-.11h0c-.07-.16-.14-.31-.22-.47L73.54,369c.3.61.59,1.21.89,1.81l7.82-3.89Zm-8.29-19.22,0,0a0,0,0,0,1,0,0c0-.11-.09-.22-.13-.32l-8.18,3c.23.64.46,1.27.7,1.9l8.17-3.12C73.89,347.76,73.71,347.29,73.54,346.82Zm-5.86-18.1a.14.14,0,0,0,0-.06v0c-.06-.21-.1-.38-.15-.58h0s0-.05,0-.09,0,0,0,0l0-.06,0-.1h0c-.07-.26-.14-.51-.2-.75l-8.45,2.23c.17.65.35,1.3.53,1.95l8.42-2.31A.54.54,0,0,0,67.68,328.72ZM62.5,203.65c-.22.64-.42,1.29-.62,1.93l8.32,2.66c.18-.59.37-1.16.56-1.74l0-.1h0Zm7.62-19.81c-.27.61-.55,1.23-.82,1.85l8,3.45c.12-.25.23-.52.34-.78a.46.46,0,0,1,0-.1h0a.79.79,0,0,0,0-.09s0,0,0,0v0c.11-.23.21-.47.32-.72Zm9.49-19c-.33.58-.66,1.17-1,1.76l7.65,4.21,0,0,0,0,0-.07h0a.35.35,0,0,1,.07-.12v0a2,2,0,0,1,.11-.2,0,0,0,0,1,0,0l0-.07,0-.05,0-.05,0-.06,0,0,0-.09v0c.12-.2.23-.41.35-.62v0l0-.06.07-.13Zm11.29-18c-.39.55-.78,1.1-1.16,1.66L97,153.47c.18-.24.34-.49.51-.73,0,0,0,0,0,0l.06-.09,0,0s0,0,0,0l0-.06,0,0,.06-.08h0c.12-.17.22-.33.34-.49Zm12.94-16.81c-.44.51-.87,1-1.3,1.54l6.71,5.61.15-.19,0,0,0,0,1-1.23Zm14.5-15.5L116.9,116l6.14,6.22.24-.25,0,0,0-.05.06,0h0l1-1Zm15.92-14-1.58,1.27,5.52,6.77.09-.06h0l0-.05.93-.75,0,0,0,0c.12-.1.24-.18.36-.29ZM151.44,88.1l-1.69,1.1,4.85,7.28,0,0s0,0,0,0l.09-.06,0,0,0,0,.05,0,.07,0,0,0,0,0h0l.09-.07h0l1.05-.69Zm18.3-10.75-1.78,1,4.12,7.7.35-.18,0,0,.06,0,.08,0h0l1.17-.61h0ZM189,68.43l-1.88.76,3.36,8.07.22-.09.1,0,.06,0h0l1.4-.58Z"></path><polygon class="cls-2" points="256.83 345.44 334.02 354.66 307.32 318.25 256.83 345.44"></polygon><polygon class="cls-2" points="190.22 176.07 210.26 241.15 224.43 230 217.37 192.39 190.22 176.07"></polygon><polygon class="cls-2" points="208.53 247.19 196.53 263.9 210.18 276.83 208.53 247.19"></polygon><path class="cls-2" d="M226.17,232l-14.86,12.08,1.11,15.42,55.81.45c-6.49-4.3-13.5-8.44-19.91-12.82C241,242.11,233.59,237.07,226.17,232Z"></path><polygon class="cls-2" points="229.52 351.43 267.65 339.71 267.96 317.67 185.88 326.4 229.41 351.46 229.52 351.43"></polygon><polygon class="cls-2" points="186.29 323.01 263.58 312.6 212.73 283.5 186.29 323.01"></polygon><path class="cls-2" d="M256.39,394.93c4,2.57,12.92,7.39,12.92,7.39l0-1.05q-.24-7.61-.44-15.12c-.12-5-.22-10-.26-15s-.05-10,0-15q.06-6.23.18-12.53l-37.23,10L242.45,386Z"></path><polygon class="cls-2" points="249.72 77.09 269.6 142.51 269.71 14.36 249.72 77.09"></polygon><polygon class="cls-2" points="271.74 193.54 270.48 147.49 269.35 147.45 218.89 189.93 226.78 228.55 269.64 195.18 271.74 193.54"></polygon><path class="cls-2" d="M268.91,244c-.13-5.24-.24-10.45-.29-15.66s-.06-10.43,0-15.68q.06-5.91.16-11.89l-39.51,28.54c6.91,5.13,12.13,11.53,19.14,16.77s20.94,12.34,20.94,12.34C269.17,253.16,269.05,249.26,268.91,244Z"></path><polygon class="cls-2" points="268.14 265.43 212.88 265.87 213.9 280.06 268.5 310.15 268.14 265.43"></polygon><polygon class="cls-2" points="226.78 400.43 228.24 428.36 252.29 437.28 234.82 417.49 234.29 416.9 234.08 416.69 234.06 416.63 234.01 416.58 234.03 416.57 226.78 400.43"></polygon><polygon class="cls-2" points="269.81 6.86 271.38 1.66 223.72 87.44 249.47 74.19 269.81 6.86"></polygon><polygon class="cls-2" points="177.98 343.39 192.57 354.93 206.14 340.83 180.32 326.85 151.3 343.34 177.32 342.92 177.33 342.88 177.39 342.92 177.42 342.92 177.42 342.94 177.98 343.39"></polygon><polygon class="cls-2" points="267.65 442.99 268.75 406.71 236.04 417.73 256.28 438.75 267.65 442.99"></polygon><path class="cls-2" d="M155.23,270.36,159,278,188.32,266l-14.41,1.89C167.63,268.67,161.42,269.5,155.23,270.36Z"></path><polygon class="cls-2" points="209.92 281.28 195.02 265.56 162.11 284.49 179.98 321.15 209.92 281.28"></polygon><polygon class="cls-2" points="152.91 364.9 170.57 370.14 177.13 343.7 177.19 343.45 150.53 345.14 152.91 364.9"></polygon><polygon class="cls-2" points="268.81 143.17 249.61 80.43 219.58 94.95 215.81 140.52 268.81 143.17"></polygon><polygon class="cls-2" points="225.95 516.86 227.1 533.83 237.08 540.28 235.85 512.57 225.95 516.86"></polygon><polygon class="cls-2" points="250.06 458.21 250.06 458.21 263.92 443.78 227.12 432.2 226.99 432.2 225.47 463.28 249.77 458.27 250.06 458.21"></polygon><polygon class="cls-2" points="255.37 495.94 267.64 485.96 268.42 469.79 249.74 460.8 225.5 463.39 226.13 464.1 255.37 495.94"></polygon><path class="cls-2" d="M234.34,416.43v0l.85-.35,33-13.38c-4-2.38-7.7-4.8-11.78-7.17-4.88-2.84-9.83-5.71-14.78-8.62l-16.85,2.85,1.54,2.91Z"></path><polygon class="cls-2" points="251.06 458.6 271.77 466.18 272.73 466.53 267.84 443.91 251.06 458.6"></polygon><polygon class="cls-2" points="229.62 355.59 220.67 379.17 224.18 388.7 241.34 386.61 229.62 355.59"></polygon><polygon class="cls-2" points="226.67 468.79 228.18 514.41 236.06 511.77 236.33 511.55 254.71 496.59 226.67 468.79"></polygon><path class="cls-2" d="M268.69,490.27l-30.32,22.89.17,30.89,15.72.33c4.75.1,9.54-.6,14.35-.53l0-1.45c-.14-9.37-.21-18.7-.18-28.06Q268.45,502.37,268.69,490.27Z"></path><polygon class="cls-2" points="268.02 147.41 195.94 144.93 187.66 165.93 219.59 186.88 268.02 147.41"></polygon><polygon class="cls-2" points="228.78 353.37 228.67 353.09 228.59 352.88 206.92 341.19 195.11 355.92 207.97 374.47 220.84 376.19 228.78 353.37"></polygon><path class="cls-2" d="M174.17,267.14l19.35-3.31,1.42-.58.25-.1,13-19.52L170.84,213q-1.51,5.9-3.06,11.73-2,7.38-4,14.67T159.55,254q-2.16,7.29-4.4,14.62l-.29,1,0,.1C161.45,268.61,167.72,268.25,174.17,267.14Z"></path><polygon class="cls-2" points="184.23 173.45 172.85 209.28 209.35 241.41 184.23 173.45"></polygon><polygon class="cls-2" points="216.4 100.72 198.41 139.66 214.82 140.47 216.4 100.72"></polygon><polygon class="cls-2" points="150.03 342.99 179.18 325.16 179.46 324.9 154.32 277.27 145.64 343.06 149.49 343 150.03 342.99"></polygon><polygon class="cls-2" points="192.5 355.96 178.02 344.78 168.75 393.13 204.84 378.3 192.77 356.46 192.5 355.96"></polygon><polygon class="cls-2" points="152.37 364.9 148.85 344.71 143.31 345.23 135.51 392.53 152.19 365.23 152.37 364.9"></polygon><polygon class="cls-2" points="153.1 366.24 152.74 367.01 152.75 367.07 152.74 367.01 137.25 399.91 141 410.55 164.74 393.67 170.37 370.6 153.1 366.24"></polygon><path class="cls-1" d="M273.08,231.1c.06-5.77.06-11.54,0-17.26s-.13-11.41-.23-17.05v-.48l.14-48.73v-2.21l-1-138.18L271.88,0l-.06.07L217.24,92.64l-3.39,5.61h0l-22.23,42.84h0l0,.07-5.83,14.29-4.57,13.32h0l-14.65,39h0c-1.53,5.24-2.05,11.42-3.56,16.74s-3,10.67-4.43,16.05-2.84,10.77-4.21,16.16q-1.62,6.39-3.2,12.75l-.39,1.49-11.6,71.94L132.91,400l0,0v.05h0l.53.94,5.69,10.24,1,1.85,2-1,24-13.16.71-.32,41.79-19.27,11.55.87,3.21,8,.27,5-.62,33.18h0l-.09,3-1.18,35.74,2.37,51.44L222.93,535l-.06.92.91.78,13.57,8.59h.56L254.5,545q8.24-.18,16.35-.3l2.29,0c.11-9.41,0-48.6-.21-58.62l0-2.24-1-15.43,1.66-24.77-.63-39.19c.09-4.61-.13-9.36,0-14,.12-5.51.22-11.06.26-16.59s.05-11.07,0-16.57-.13-10.95-.22-16.37l0-1.59.37-24.69-.07-1.84.4-50.08.06-2.78c.15-5.1.14-6.35.26-11.49C274,242.65,273,236.87,273.08,231.1ZM234.82,417.49l17.47,19.79-24-8.92-1.46-27.93L234,416.57Zm1.22.24,32.71-11L267.65,443l-11.37-4.24Zm-58.65-74.81-.06,0v0l-26,.42,29-16.49,25.82,14-13.57,14.1L178,343.39l-.56-.45v0Zm-.2.53-.06.25-6.56,26.44-17.66-5.24-2.38-19.76ZM195,265.56l14.9,15.72-7,12.55L180,321.15l-17.87-36.66ZM159,278l-3.73-7.65c6.19-.86,12.4-1.69,18.68-2.51L188.32,266Zm54.94,2.05-1-14.19L237,264.46l31.18,1,.36,44.73L232.13,292.4Zm49.68,32.54-46.73,7.6L186.29,323l26.44-39.51Zm-51.16-53.13-1.11-15.42L226.17,232c7.42,5.1,14.83,10.14,22.15,15.13,6.41,4.38,13.42,8.52,19.91,12.82l-28.53,1.53Zm-2.16-18.32-20-65.08,27.15,16.32L224.43,230ZM196.53,263.9l12-16.71,1.65,29.64Zm-10.65,62.5L268,317.67l-.31,22-38.13,11.72-.11,0Zm82.87,17.17q-.12,6.3-.18,12.53-.06,7.56,0,15c0,5,.14,10,.26,15s.28,10.05.44,15.12l0,1.05s-8.91-4.82-12.92-7.39L242.45,386l-10.93-32.46Zm-20.36-97.46c-7-5.24-12.23-11.64-19.14-16.77l39.51-28.54q-.11,6-.16,11.89-.06,7.88,0,15.68c.05,5.21.16,10.42.29,15.66s.26,9.13.42,14.42C269.33,258.45,255.31,251.28,248.39,246.11Zm-21.6-17.56-7.9-38.62,50.46-42.48,1.13,0-2.63,49.8ZM249.72,77.09l20-62.73-.11,128.15ZM271.38,1.66l-1.57,5.2L249.47,74.19,223.72,87.44ZM219.58,95l30-14.52,19.2,62.74-53-2.65Zm-3.18,5.77-1.58,39.75-16.41-.81Zm-20.46,44.21L268,147.41l-48.43,39.46-31.93-20.94Zm-11.71,28.52,25.12,68-36.5-32.12Zm-29.08,95.12q2.23-7.33,4.4-14.62t4.22-14.58q2.07-7.29,4-14.67,1.54-5.83,3.06-11.73l37.36,30.66-13,19.52-20.77,3.53c-6.45,1.1-13,1.93-19.52,3l0-.1Zm-.82,8.7,25.13,47.63-.28.26L150,343h-.54l-3.85.06Zm-11,68,5.54-.52,3.52,20.19-.18.32-16.68,27.31Zm21.43,48.44L141,410.55l-3.75-10.64L152.74,367v0l.36-.77,17.27,4.36Zm4-.54L178,344.78,192.5,356l.27.5,12.07,21.84ZM208,374.47l-12.86-18.55,11.81-14.73,21.67,11.69.08.21.11.28-7.94,22.82Zm17.78,14-5.08-9.27,9-23.58,11.72,31Zm15.85-1.51c5,2.91,9.9,5.78,14.78,8.62,4.08,2.37,7.79,4.79,11.78,7.17l-33,13.38-.85.35v0l-8.05-23.74,0-3.17ZM227,432.2h.13l36.8,11.58-13.86,14.43h0l-.29.06-24.3,4.24Zm22.75,28.6,18.68,9L267.64,486l-12.28,10L226.13,464.1l-.63-.71Zm-22.64,73-1.15-17,9.9-4.29,1.23,27.71Zm9.23-22.28-.27.22-7.88,2.64-1.51-45.62,28,27.8Zm32.25,30.85,0,1.45c-4.81-.07-9.6.63-14.35.53l-15.72-.33-.17-30.89,30.32-22.89q-.22,12.12-.29,24.07C268.37,523.7,268.44,533,268.58,542.4Zm-17.52-83.8,16.78-14.69,1,21.35Z"></path><polygon class="cls-2" points="353.49 176.07 333.44 241.15 319.27 230 326.34 192.39 353.49 176.07"></polygon><polygon class="cls-2" points="335.18 247.19 347.18 263.9 333.52 276.83 335.18 247.19"></polygon><path class="cls-2" d="M317.53,232l14.86,12.08-1.11,15.42-55.8.45c6.48-4.3,13.49-8.44,19.91-12.82C302.7,242.11,310.12,237.07,317.53,232Z"></path><polygon class="cls-2" points="314.18 351.43 276.06 339.71 275.75 317.67 357.82 326.4 314.29 351.46 314.18 351.43"></polygon><polygon class="cls-2" points="357.41 323.01 280.13 312.6 330.97 283.5 357.41 323.01"></polygon><path class="cls-2" d="M287.31,394.93c-4,2.57-12.92,7.39-12.92,7.39l0-1.05q.22-7.61.43-15.12c.13-5,.22-10,.27-15s0-10,0-15q-.06-6.23-.17-12.53l37.23,10L301.26,386Z"></path><polygon class="cls-2" points="293.99 77.09 274.11 142.51 274 14.36 293.99 77.09"></polygon><polygon class="cls-2" points="271.97 193.54 273.22 147.49 274.36 147.45 324.81 189.93 316.92 228.55 274.07 195.18 271.97 193.54"></polygon><path class="cls-2" d="M274.79,244c.14-5.24.24-10.45.3-15.66s.05-10.43,0-15.68c0-3.94-.09-7.91-.15-11.89l39.5,28.54c-6.91,5.13-12.13,11.53-19.14,16.77s-20.94,12.34-20.94,12.34C274.54,253.16,274.65,249.26,274.79,244Z"></path><polygon class="cls-2" points="275.56 265.43 330.82 265.87 329.8 280.06 275.2 310.15 275.56 265.43"></polygon><polygon class="cls-2" points="316.92 400.43 315.47 428.36 291.42 437.28 308.88 417.49 309.41 416.9 309.62 416.69 309.65 416.63 309.69 416.58 309.67 416.57 316.92 400.43"></polygon><polygon class="cls-2" points="273.89 6.86 272.32 1.66 319.98 87.44 294.23 74.19 273.89 6.86"></polygon><polygon class="cls-2" points="365.73 343.39 351.14 354.93 337.56 340.83 363.38 326.85 392.41 343.34 366.38 342.92 366.37 342.88 366.31 342.92 366.28 342.92 366.29 342.94 365.73 343.39"></polygon><polygon class="cls-2" points="276.05 442.99 274.96 406.71 307.66 417.73 287.43 438.75 276.05 442.99"></polygon><path class="cls-2" d="M388.47,270.36,384.75,278,355.38,266l14.41,1.89Q379.21,269.08,388.47,270.36Z"></path><polygon class="cls-2" points="333.79 281.28 348.69 265.56 381.59 284.49 363.73 321.15 333.79 281.28"></polygon><polygon class="cls-2" points="390.8 364.9 373.13 370.14 366.58 343.7 366.51 343.45 393.18 345.14 390.8 364.9"></polygon><polygon class="cls-2" points="274.89 143.17 294.09 80.43 324.13 94.95 327.9 140.52 274.89 143.17"></polygon><polygon class="cls-2" points="317.76 516.86 316.61 533.83 306.62 540.28 307.85 512.57 317.76 516.86"></polygon><polygon class="cls-2" points="293.65 458.21 293.64 458.21 279.78 443.78 316.58 432.2 316.72 432.2 318.23 463.28 293.94 458.27 293.65 458.21"></polygon><polygon class="cls-2" points="288.34 495.94 276.06 485.96 275.28 469.79 293.96 460.8 318.2 463.39 317.57 464.1 288.34 495.94"></polygon><path class="cls-2" d="M309.36,416.43v0l-.85-.35-33-13.38c4-2.38,7.71-4.8,11.78-7.17,4.88-2.84,9.83-5.71,14.78-8.62L319,389.78l-1.54,2.91Z"></path><polygon class="cls-2" points="292.65 458.6 271.94 466.18 270.98 466.53 275.87 443.91 292.65 458.6"></polygon><polygon class="cls-2" points="314.08 355.59 323.04 379.17 319.52 388.7 302.36 386.61 314.08 355.59"></polygon><polygon class="cls-2" points="317.03 468.79 315.53 514.41 307.64 511.77 307.37 511.55 288.99 496.59 317.03 468.79"></polygon><path class="cls-2" d="M275,490.27l30.32,22.89-.18,30.89-15.71.33c-4.76.1-9.54-.6-14.36-.53l0-1.45c.13-9.37.21-18.7.17-28.06Q275.26,502.37,275,490.27Z"></path><polygon class="cls-2" points="275.68 147.41 347.76 144.93 356.05 165.93 324.12 186.88 275.68 147.41"></polygon><polygon class="cls-2" points="314.92 353.37 315.03 353.09 315.11 352.88 336.79 341.19 348.59 355.92 335.73 374.47 322.86 376.19 314.92 353.37"></polygon><path class="cls-2" d="M369.54,267.14l-19.35-3.31-1.42-.58-.25-.1-13-19.52L372.87,213q1.51,5.9,3.05,11.73,2,7.38,4,14.67T384.15,254q2.18,7.29,4.4,14.62l.29,1,0,.1C382.26,268.61,376,268.25,369.54,267.14Z"></path><polygon class="cls-2" points="359.48 173.45 370.85 209.28 334.36 241.41 359.48 173.45"></polygon><polygon class="cls-2" points="327.3 100.72 345.29 139.66 328.89 140.47 327.3 100.72"></polygon><polygon class="cls-2" points="393.68 342.99 364.52 325.16 364.25 324.9 389.38 277.27 398.06 343.06 394.22 343 393.68 342.99"></polygon><polygon class="cls-2" points="351.2 355.96 365.69 344.78 374.95 393.13 338.87 378.3 350.93 356.46 351.2 355.96"></polygon><polygon class="cls-2" points="391.34 364.9 394.85 344.71 400.39 345.23 408.19 392.53 391.52 365.23 391.34 364.9"></polygon><polygon class="cls-2" points="390.6 366.24 390.96 367.01 390.96 367.07 390.97 367.01 406.45 399.91 402.71 410.55 378.97 393.67 373.33 370.6 390.6 366.24"></polygon><path class="cls-3" d="M272.85,544.67c5.42.08,10.86.18,16.35.3l16.59.34h.57l13.56-8.59.91-.78-.06-.92-1.25-18.47,2.37-51.44-1.17-35.74-.1-3h0L320,393.23l.27-5,3.21-8,11.54-.87,41.79,19.27.72.32,24,13.16,2,1,1-1.85,5.7-10.24.52-.94h0v-.05l0,0-6.28-57.11L392.92,271l-.4-1.49q-1.57-6.36-3.2-12.75-2.06-8.09-4.21-16.16t-4.43-16.05c-1.5-5.32-2-11.5-3.56-16.74h0l-14.64-39h0l-4.57-13.32-5.84-14.29,0-.07h0L329.83,98.24h0l-3.4-5.61L271.89.07,271.82,0l0,544.66Zm36.82-128.1,7.25-16.14-1.45,27.93-24.05,8.92,17.46-19.79Zm-22.24,22.18L276.05,443,275,406.71l32.7,11Zm78.85-95.83v0l-.56.45-14.59,11.54-13.58-14.1,25.82-14,29,16.49-26-.42v0l-.06,0Zm26.9,2.22L390.8,364.9l-17.67,5.24-6.55-26.44-.07-.25Zm-11.59-60.65-17.86,36.66-22.91-27.32-7-12.55,14.9-15.72ZM355.38,266l14.41,1.89q9.42,1.23,18.68,2.51L384.75,278Zm-43.8,26.44L275.2,310.15l.36-44.73,31.19-1,24.07,1.41-1,14.19ZM331,283.5,357.41,323l-30.56-2.81-46.72-7.6Zm-27-22.05-28.53-1.53c6.48-4.3,13.49-8.44,19.91-12.82,7.31-5,14.73-10,22.14-15.13l14.86,12.08-1.11,15.42ZM319.28,230l7.06-37.61,27.15-16.32-20.05,65.08Zm14.24,46.83,1.66-29.64,12,16.71Zm-19.23,74.63-.11,0-38.13-11.72-.3-22,82.07,8.73Zm-2.1,2.08L301.26,386l-13.95,8.93c-4,2.57-12.92,7.39-12.92,7.39l0-1.05q.22-7.61.43-15.12c.13-5,.22-10,.27-15s0-10,0-15q-.06-6.23-.17-12.53Zm-37.82-95.09c.17-5.29.28-9.19.42-14.42s.24-10.45.3-15.66.05-10.43,0-15.68c0-3.94-.09-7.91-.15-11.89l39.5,28.54c-6.91,5.13-12.13,11.53-19.14,16.77S274.37,258.45,274.37,258.45Zm.27-62.13-1.42-48.83,1.14,0,50.45,42.48-7.89,38.62Zm-.53-53.81L274,14.36l20,62.73ZM320,87.44,294.23,74.19,273.89,6.86l-1.57-5.2Zm7.92,53.08-53,2.65,19.2-62.74,30,14.52Zm17.39-.86-16.4.81-1.59-39.75Zm10.76,26.27-31.93,20.94-48.44-39.46,72.08-2.48Zm14.8,43.36-36.49,32.12,25.11-68Zm18,60.28,0,.1c-6.54-1.06-13.07-1.89-19.51-3l-20.77-3.53-13-19.52L372.87,213q1.51,5.9,3.05,11.73,2,7.38,4,14.67T384.15,254q2.18,7.29,4.4,14.62Zm9.22,73.49-3.84-.06h-.54l-29.16-17.83-.28-.26,25.14-47.63Zm10.13,49.47-16.67-27.31-.18-.32,3.51-20.19,5.54.52ZM373.33,370.6l17.27-4.36.37.77v0l15.48,32.89-3.74,10.64L379,393.67Zm-34.46,7.7,12.06-21.84.27-.5,14.49-11.18L375,393.13Zm-16-2.11-7.94-22.82.11-.28.08-.21,21.68-11.69,11.8,14.73-12.86,18.55Zm-20.5,10.42,11.72-31L323,379.17,318,388.44Zm15,2.91,0,3.17-8.05,23.74v0l-.85-.35-33-13.38c4-2.38,7.71-4.8,11.78-7.17,4.88-2.84,9.83-5.71,14.78-8.62Zm.86,73-24.3-4.24-.29-.06h0l-13.86-14.43,36.8-11.58h.14Zm0,.88-.63.71-29.23,31.84-12.28-10-.78-16.17,18.69-9Zm-11.58,76.89,1.23-27.71,9.91,4.29-1.15,17ZM289,496.59l28-27.8-1.5,45.62-7.89-2.64-.27-.22ZM275.3,514.34q0-12-.28-24.07l30.32,22.89-.18,30.89-15.71.33c-4.76.1-9.54-.6-14.36-.53l0-1.45C275.26,533,275.34,523.7,275.3,514.34Zm-2.48-48.9,3.05-21.53,16.78,14.69Z"></path><path class="cls-3" d="M713.46,148.2l-32,31.31,34.73,43.05,17,20.55H713.13c-2-2.29-5.22-6.69-8.8-11.09l-33.6-41.91-4.89,4.73v28.7c0,5.71.16,16.47.16,19.57H650.19c0-3.1.16-13.86.16-19.57v-75c0-5.71-.16-16.48-.16-19.57H666c0,3.09-.16,13.86-.16,19.57V164c0,5.54-.65,11.74-1.14,12.88l.65.33c.16-.33,2.45-3.92,8.15-9.46l30.17-29.52c4.08-3.91,7-7.17,9.14-9.29h20.71Z"></path><path class="cls-3" d="M925,223.54c0,5.71.16,16.47.16,19.57H909.3c0-3.1.16-13.86.16-19.57V188.48H855v35.06c0,5.71.16,16.47.16,19.57H839.34c0-3.1.17-13.86.17-19.57v-75c0-5.71-.17-16.48-.17-19.57h15.82c0,3.09-.16,13.86-.16,19.57v25.6h54.46v-25.6c0-5.71-.16-16.48-.16-19.57h15.82c0,3.09-.16,13.86-.16,19.57Z"></path><path class="cls-3" d="M1154.88,186a60.34,60.34,0,1,1-60.33-60.34A60.41,60.41,0,0,1,1154.88,186Zm-105.18,0c0,25.44,20.06,46,44.85,46s44.84-20.55,44.84-46-20.06-46-44.84-46S1049.7,160.59,1049.7,186Z"></path><path class="cls-3" d="M1283.05,129c0,3.09-.16,13.86-.16,19.57v75c0,5.71.16,16.47.16,19.57h-15.82c0-3.1.16-13.86.16-19.57v-75c0-5.71-.16-16.48-.16-19.57Z"></path><path class="cls-4" d="M713.14,331.2l-32,31.31,34.73,43.05,17,20.55H712.81c-1.95-2.29-5.21-6.69-8.8-11.09l-33.59-41.91-4.9,4.73v28.7c0,5.71.17,16.47.17,19.57H649.87c0-3.1.16-13.86.16-19.57v-75c0-5.71-.16-16.48-.16-19.57h15.82c0,3.09-.17,13.86-.17,19.57V347c0,5.54-.65,11.74-1.14,12.88l.65.33c.17-.33,2.45-3.92,8.16-9.46l30.17-29.52c4.07-3.91,7-7.17,9.13-9.29H733.2Z"></path><path class="cls-3" d="M885.18,411.59l-17.13-36.36H854.68v31.31c0,5.71.16,16.47.16,19.57H839c0-3.1.16-13.86.16-19.57V312h33.92c19.08,0,31.63,14.18,31.63,31.63,0,14.35-8.64,26.58-21.52,29.68l-.16.33a15.89,15.89,0,0,1,2.77,4.4l14.35,30.5c3.1,6.68,8.48,17.61,8.48,17.61h-17C890.07,422.52,887.78,417,885.18,411.59Zm-30.5-86.26v36.2h16.47c11.58,0,18.1-8.15,18.1-18.1s-6.52-18.1-18.1-18.1Z"></path><path class="cls-3" d="M1014,312h37.83c5.71,0,16.47-.17,19.57-.17v14.68c-3.1,0-13.86-.16-19.57-.16h-22.34v30h14.35c5.71,0,16.47-.16,19.57-.16v15c-3.1,0-13.86-.16-19.57-.16h-14.35V411.1h25.6c5.71,0,16.47-.16,19.57-.16v15.33c-3.1,0-13.86-.16-19.57-.16H1014Z"></path><path class="cls-3" d="M1266.1,410.13h-60.82l-2,4.56c-1.47,3.1-3.43,7.5-5.06,11.42h-16.79c1.3-2.77,5.87-12.56,8.15-17.78l45.5-102.57,46.8,102.57c2.28,5.22,7,15,8.15,17.78h-16.79c-1.63-3.92-3.59-8.32-5.06-11.42Zm-11.74-14.35a13.45,13.45,0,0,1,5.71,1l.32-.65c-.32-.16-1.14-1-2.61-4.24l-18.1-39.62c-3.26-7-4.07-11.42-4.07-12.24H1235c0,.82-.82,5.22-3.92,12.24l-17.61,39.62a11.45,11.45,0,0,1-2.77,4.24l.32.65c.33-.32,2.78-1,5.71-1Z"></path><path class="cls-3" d="M1446,326.47c-3.1,0-13.86-.16-19.57-.16h-6.69v80.23c0,5.71.17,16.47.17,19.57h-15.82c0-3.1.16-13.86.16-19.57V326.31h-6.69c-5.7,0-16.47.16-19.57.16V311.79c3.1,0,13.87.17,19.57.17h28.87c5.71,0,16.47-.17,19.57-.17Z"></path><path class="cls-3" d="M1569.9,312c0,3.09-.17,13.86-.17,19.57v75c0,5.71.17,16.47.17,19.57h-15.82c0-3.1.16-13.86.16-19.57v-75c0-5.71-.16-16.48-.16-19.57Z"></path><path class="cls-3" d="M1688.28,333.16c-3.1-7-6.36-14.19-9.29-21.2h16.79c1.14,2.93,4.08,9.78,6.36,15.16l23.32,53.65c2.45,5.55,4.73,14,4.89,16h.66a74.5,74.5,0,0,1,4.56-16L1757.91,327c2.29-5.38,4.9-12.07,6-15h16.47c-1.14,2.93-6.69,15.49-8.81,20.71L1730.84,431Z"></path><path class="cls-3" d="M1886.41,312h37.83c5.71,0,16.47-.17,19.57-.17v14.68c-3.1,0-13.86-.16-19.57-.16H1901.9v30h14.35c5.71,0,16.47-.16,19.57-.16v15c-3.1,0-13.86-.16-19.57-.16H1901.9V411.1h25.6c5.71,0,16.47-.16,19.57-.16v15.33c-3.1,0-13.86-.16-19.57-.16h-41.09Z"></path><circle class="cls-3" cx="539.88" cy="272.71" r="3.83"></circle><circle class="cls-3" cx="512.56" cy="272.71" r="5.65"></circle><circle class="cls-3" cx="480.5" cy="272.71" r="8.56"></circle><circle class="cls-3" cx="444.07" cy="272.71" r="10.02"></circle><circle class="cls-3" cx="3.83" cy="272.71" r="3.83"></circle><circle class="cls-3" cx="31.15" cy="272.71" r="5.65"></circle><circle class="cls-3" cx="63.21" cy="272.71" r="8.56"></circle><circle class="cls-3" cx="99.64" cy="272.71" r="10.02"></circle></g></g></svg> 